<svg width="151" height="99" xmlns="http://www.w3.org/2000/svg" xmlns:xlink="http://www.w3.org/1999/xlink" xml:space="preserve" overflow="hidden"><defs><clipPath id="clip0"><rect x="5" y="494" width="151" height="99"/></clipPath><clipPath id="clip1"><rect x="6" y="495" width="150" height="98"/></clipPath><clipPath id="clip2"><rect x="6" y="495" width="151" height="98"/></clipPath><clipPath id="clip3"><rect x="6" y="495" width="151" height="98"/></clipPath><radialGradient cx="-678.758" cy="468.373" r="75.8911" gradientUnits="userSpaceOnUse" spreadMethod="pad" id="fill4" gradientTransform="matrix(0.157572 0 0 0.157572 139.658 -28.0285)"><stop offset="0" stop-color="#B7FFEF" stop-opacity="1"/><stop offset="0.512766" stop-color="#C9C9C9" stop-opacity="1"/><stop offset="1" stop-color="#09D28F" stop-opacity="0.654902"/></radialGradient></defs><g clip-path="url(#clip0)" transform="translate(-5 -494)"><g clip-path="url(#clip1)"><g clip-path="url(#clip2)"><g clip-path="url(#clip3)"><path d="M71.7658 41.7986 72.0273 43.7781 124.99 43.7781C131.697 43.7781 137.097 43.5953 137.097 43.3685L137.097 42.2081C137.097 41.9812 131.697 41.7986 124.99 41.7986ZM10.4159 41.8071C4.90239 41.8456 0.780919 42.01 0.780919 42.2082L0.780919 43.3686C0.780919 43.5616 4.69502 43.7222 9.99206 43.766Z" fill="#FFFFFF" fill-rule="nonzero" fill-opacity="1" transform="matrix(1 0 0 1.10919 6 495)"/><path d="M122.153 5.88412 131.308 5.88412C133.28 5.88412 134.867 6.15465 134.867 6.49069L134.867 20.2894C134.867 20.6254 133.28 20.896 131.308 20.896L122.153 20.896C120.181 20.896 118.594 20.6254 118.594 20.2894L118.594 6.49069C118.594 6.15465 120.181 5.88412 122.153 5.88412Z" fill="#000000" fill-rule="nonzero" fill-opacity="1" transform="matrix(1 0 0 1.10919 6 495)"/><path d="M18.5589 0.348888 55.6337 0.318233C58.3922 0.315837 59.8143 1.36704 60.6129 2.55103L69.2281 15.3241C70.0266 16.5081 67.0074 17.5569 64.2489 17.5569L12.6787 17.5569C9.92028 17.5569 7.07804 16.5292 7.69954 15.3241L13.3063 4.45203C13.9277 3.24686 15.8005 0.351177 18.5589 0.348895Z" fill="#000000" fill-rule="nonzero" fill-opacity="1" transform="matrix(1 0 0 1.10919 6 495)"/><path d="M12.8998 8.94304 137.424 8.94304C144.085 8.94304 149.447 13.8569 149.447 19.9609L149.447 76.8346C149.447 82.9384 144.085 87.8524 137.424 87.8524L12.8998 87.8524C6.23911 87.8524 0.876855 82.9384 0.876855 76.8346L0.876855 19.9609C0.876855 13.8569 6.23911 8.94304 12.8998 8.94304Z" fill="#000000" fill-rule="nonzero" fill-opacity="1" transform="matrix(1 0 0 1.10919 6 495)"/><text fill="#FFFFFF" fill-opacity="1" font-family="Tahoma,Tahoma_MSFontService,sans-serif" font-style="normal" font-variant="normal" font-weight="400" font-stretch="normal" font-size="162" text-anchor="start" direction="ltr" writing-mode="lr-tb" unicode-bidi="normal" text-decoration="none" transform="matrix(0.090525 0 0 0.10041 82.3076 584)">Laboratory</text><path d="M45.1931 45.7744C45.1931 52.6719 39.6016 58.2635 32.7041 58.2635 25.8066 58.2635 20.2151 52.6719 20.2151 45.7744 20.2151 38.8769 25.8066 33.2854 32.7041 33.2854 39.6016 33.2854 45.1931 38.8769 45.1931 45.7744Z" fill="#1C7847" fill-rule="nonzero" fill-opacity="1" transform="matrix(1 0 0 1.10919 6 495)"/><path d="M44.6624 45.7744C44.6624 52.3789 39.3085 57.7328 32.7041 57.7328 26.0997 57.7328 20.7457 52.3789 20.7457 45.7744 20.7457 39.17 26.0997 33.8161 32.7041 33.8161 39.3085 33.8161 44.6624 39.17 44.6624 45.7744Z" fill="url(#fill4)" fill-rule="nonzero" transform="matrix(1 0 0 1.10919 6 495)"/><path d="M38.3349 55.3155 34.3383 49.118 36.773 56.0789 33.7951 49.3324 35.111 56.5886 33.225 49.4594 33.3896 56.8319 32.6422 49.4955 31.6514 56.803 32.0609 49.44 29.9391 56.5026 31.4954 49.2942 28.2949 55.938 30.9597 49.0618 26.7592 55.1231 30.4668 48.7485 25.37 54.078 30.0291 48.3618 24.1613 52.8284 29.6574 47.9116 23.163 51.4053 29.3605 47.4086 22.3996 49.8434 29.1461 46.8654 21.89 48.1813 29.0192 46.2954 21.6466 46.46 28.983 45.7125 21.6755 44.7217 29.0385 45.1313 21.976 43.0094 29.1843 44.5658 22.5406 41.3652 29.4167 44.03 23.3555 39.8296 29.7301 43.5372 24.4005 38.4403 30.1167 43.0995 25.6501 37.2317 30.567 42.7277 27.0732 36.2334 31.0699 42.4309 28.6352 35.47 31.6131 42.2164 30.2972 34.9603 32.1831 42.0895 32.0185 34.7169 32.7659 42.0534 33.7568 34.7458 33.3473 42.1089 35.4691 35.0463 33.9128 42.2547 37.1133 35.6109 34.4485 42.487 38.6489 36.4257 34.9413 42.8004 40.0381 37.4709 35.379 43.187 41.2468 38.7204 35.7508 43.6373 42.2451 40.1436 36.0476 44.1402 43.0085 41.7055 36.2621 44.6834 43.5182 43.3676 36.389 45.2535 43.7616 45.0889 36.4251 45.8363 43.7327 46.8272 36.3696 46.4176 43.4322 48.5394 36.2239 46.9831 42.8676 50.1836 35.9915 47.5189 42.0528 51.7193 35.6781 48.0117 41.0077 53.1085 35.2916 48.4494 39.7581 54.3172 34.8412 48.8212Z" fill="#FFFFFF" fill-rule="nonzero" fill-opacity="0.520202" transform="matrix(1 0 0 1.10919 6 495)"/><path d="M36.7679 45.7744C36.7679 48.0188 34.9485 49.8383 32.7041 49.8383 30.4597 49.8383 28.6402 48.0188 28.6402 45.7744 28.6402 43.53 30.4597 41.7106 32.7041 41.7106 34.9485 41.7106 36.7679 43.53 36.7679 45.7744Z" fill="#000000" fill-rule="nonzero" fill-opacity="1" transform="matrix(1 0 0 1.10919 6 495)"/><path d="M52.7169 45.7744C52.7169 56.8272 43.7569 65.7873 32.7041 65.7873 21.6513 65.7873 12.6912 56.8272 12.6912 45.7744 12.6912 34.7217 21.6513 25.7616 32.7041 25.7616 43.7569 25.7616 52.7169 34.7217 52.7169 45.7744Z" stroke="#FFFFFF" stroke-width="1.64848" stroke-linecap="butt" stroke-linejoin="miter" stroke-miterlimit="4" stroke-opacity="1" fill="none" fill-rule="nonzero" transform="matrix(1 0 0 1.10919 6 495)"/><path d="M57.5526 44.3881 149.342 44.3881 149.342 47.1609 57.5526 47.1609Z" fill="#FFFFFF" fill-rule="nonzero" fill-opacity="1" transform="matrix(1 0 0 1.10919 6 495)"/><path d="M7.66156 45.7743C7.66156 32.1645 18.8733 21.1295 32.7041 21.1295 46.5349 21.1295 57.7466 32.1645 57.7466 45.7743 57.7466 59.3866 46.5349 70.4194 32.7041 70.4194 18.8733 70.4194 7.66156 59.3866 7.66156 45.7743Z" stroke="#FFFFFF" stroke-width="1.76667" stroke-linecap="butt" stroke-linejoin="miter" stroke-miterlimit="10" stroke-opacity="1" fill="none" fill-rule="nonzero" transform="matrix(1 0 0 1.10919 6 495)"/><path d="M0.765272 44.3881 7.08664 44.3881 7.08664 47.1609 0.765272 47.1609Z" fill="#FFFFFF" fill-rule="nonzero" fill-opacity="1" transform="matrix(1 0 0 1.10919 6 495)"/><text fill="#FFFFFF" fill-opacity="1" font-family="Tahoma,Tahoma_MSFontService,sans-serif" font-style="normal" font-variant="normal" font-weight="400" font-stretch="normal" font-size="162" text-anchor="start" direction="ltr" writing-mode="lr-tb" unicode-bidi="normal" text-decoration="none" transform="matrix(0.090525 0 0 0.10041 91.1807 533)">iometric<tspan fill="#FFFFFF" fill-opacity="1" font-family="Tahoma,Tahoma_MSFontService,sans-serif" font-style="normal" font-variant="normal" font-weight="400" font-stretch="normal" font-size="158" text-anchor="start" direction="ltr" writing-mode="lr-tb" unicode-bidi="normal" text-decoration="none" x="-149.45" y="308.735">echnologies</tspan></text><path d="M59.4723 12.4979 59.4723 47.0652 69.3851 47.0652C71.7376 47.0652 73.6567 46.8562 75.1424 46.4384 76.6282 46.005 78.0213 45.2775 79.3213 44.256 79.8993 43.8081 80.4145 43.2956 80.8683 42.7193L76.3768 41.085C76.1499 41.2904 75.903 41.4891 75.6301 41.6791 74.7479 42.2827 73.7264 42.6774 72.5656 42.8632 71.4049 43.0489 69.8183 43.1418 67.8064 43.1418L64.0689 43.1418 64.0689 30.3735 69.2921 30.3735C70.8708 30.3735 72.0859 30.4275 72.9372 30.5358 73.8039 30.6442 74.6009 30.8918 75.3283 31.2787 76.4581 31.8668 77.2086 32.5865 77.5801 33.4377 77.8825 34.1182 78.0596 34.9552 78.1158 35.9433L82.8617 37.6702C82.9 37.2771 82.9196 36.8724 82.9196 36.4557 82.9196 34.2425 82.3546 32.4008 81.2248 30.9305 80.095 29.4447 78.5009 28.4234 76.4425 27.8663L76.4425 27.6804C77.9593 26.953 79.1433 25.947 79.9945 24.6625 80.8612 23.3779 81.2944 21.9233 81.2944 20.2982 81.2944 18.8433 81.0081 17.5819 80.4355 16.514 79.8628 15.4306 78.9576 14.5562 77.7195 13.8907 76.5897 13.2871 75.4055 12.908 74.1674 12.7532 72.9448 12.5829 71.1031 12.4979 68.6422 12.4979ZM64.0689 16.4211 68.4798 16.4211C70.0893 16.4211 71.3508 16.4676 72.2639 16.5605 73.177 16.6534 74.0049 16.9085 74.7478 17.3265 75.3668 17.6824 75.8157 18.17 76.0943 18.7891 76.3729 19.3926 76.5121 20.1123 76.5121 20.9481 76.5121 22.016 76.3652 22.9136 76.0712 23.641 75.7772 24.3683 75.2817 24.9565 74.5852 25.4053 73.8578 25.8696 73.1536 26.1793 72.4726 26.3341 71.7917 26.4734 70.7315 26.5428 69.2921 26.5428L64.0689 26.5428Z" fill="#FFFFFF" fill-rule="nonzero" fill-opacity="1" transform="matrix(1 0 0 1.10919 6 495)"/><path d="M57.4788 29.1472 56.0816 32.9869 58.8032 33.9771 58.8032 29.629ZM64.7383 31.7888 64.7383 36.1369 69.583 37.8996 67.9195 42.4715C69.8558 42.4677 71.3803 42.3749 72.4597 42.2021 73.1162 42.0971 73.7146 41.9215 74.2627 41.6776L74.9295 39.8452 88.4308 44.7581 89.8281 40.9185ZM72.0972 47.6286C71.2615 47.6994 70.359 47.7345 69.3855 47.7345L66.0043 47.7345 59.1599 66.5438 64.5066 68.4891Z" fill="#FFFFF5" fill-rule="nonzero" fill-opacity="1" transform="matrix(1 0 0 1.10919 6 495)"/></g></g></g></g></svg>